<?xml version="1.0" encoding="utf-8"?>
<!-- Generator: Adobe Illustrator 24.0.1, SVG Export Plug-In . SVG Version: 6.00 Build 0)  -->
<svg version="1.1" id="Layer_1" xmlns="http://www.w3.org/2000/svg" xmlns:xlink="http://www.w3.org/1999/xlink" x="0px" y="0px"
	 viewBox="0 0 1031.4 171" style="enable-background:new 0 0 1031.4 171;" xml:space="preserve">
<style type="text/css">
	.st0{fill:#FFFFFF;}
</style>
<title>Asset 1Pantheon-Logotype</title>
<g id="Layer_2_1_">
	<g id="Layer_1-2">
		<path class="st0" d="M29.9,1.7c11.5,0,21.8,9.3,21.8,21V66c0,16.3-7.9,28-24.4,28H17v75H4.8c-4.1,0-4.8-2.4-4.8-3.6V1.7H29.9z
			 M35.1,25.8c-0.5-4.6-4.4-8.1-9.1-8.1H17v60.2h9.1c4.7,0,8.6-3.5,9.1-8.1L35.1,25.8z"/>
		<path class="st0" d="M195,169h-18.9L161.1,53.8L146,169h-18.9L152.5,1.7h9.3c7.2,0,8.4,4.5,9.1,9.1L195,169z"/>
		<path class="st0" d="M326.5,169h-7.9c-9.3,0-10.8-7.4-11.5-10.8l-18.4-82.7V169h-17.2V1.7h7.9c9.6,0,11.2,4.5,12.2,9.3l17.7,87
			V1.7h17.2L326.5,169z"/>
		<path class="st0" d="M470.3,14.1c-1,2.1-3.6,4.5-9.1,4.5h-13.4c-2.3,0-4.1,1.8-4.3,4.1V169h-12.2c-4.1,0-4.8-2.4-4.8-3.6V18.6
			h-24.1V6.9c0-2.9,2.4-5.2,5.3-5.3H476L470.3,14.1z"/>
		<path class="st0" d="M595.5,1.7c5.3,0,6.9,3.8,6.9,6.7V169h-17.2V96.1c-0.2-2.1-1.9-3.8-4.1-3.8h-18.6V169h-17.2V8.4
			c0-2.9,1.7-6.7,6.9-6.7h10.3v67.6c0,4.8,1.9,6,6,6h16.7V1.7H595.5z"/>
		<path class="st0" d="M867.5,0c11.5,0.4,20.7,9.8,20.8,21.3v128.3c-0.3,11.4-9.4,20.6-20.8,21h-13.1c-11.7-0.1-21.2-9.3-21.5-21
			V21.3c0.1-11.8,9.7-21.3,21.5-21.3c0,0,0,0,0,0H867.5z M861.8,155.6c5,0,9.1-4.1,9.1-9.2c0,0,0-0.1,0-0.1V24.4
			c0.1-5-3.9-9.2-8.9-9.3c0,0-0.1,0-0.1,0h-2.6c-5,0.2-9.1,4.3-9.1,9.3v121.9c0.1,5,4.1,9.1,9.1,9.3H861.8z"/>
		<path class="st0" d="M1031.4,169h-7.9c-9.3,0-10.8-7.4-11.5-10.8l-18.4-82.7V169h-17.2V1.7h7.9c9.6,0,11.2,4.5,12.2,9.3l17.7,87
			V1.7h17.2V169z"/>
		<path class="st0" d="M752.8,152.7c0.3,2,0.2,4.1-0.2,6.1c-1,4.8-3.6,9.1-7.3,12.2c-0.7-0.3-1.3-0.7-1.8-1.3
			c-0.7-1-1.5-2.1-2.2-3.1l-6-8.2c-2.9-3.9-5.7-7.8-8.5-11.8c-3.3-4.6-6.7-9.2-10-13.7s-6.8-9.4-10.2-14.2
			c-3.1-4.3-6.2-8.6-9.4-12.9c-2.5-3.4-4.9-6.8-7.4-10.2c-2.1-2.8-5.8-6.1-7.1-9.3s2.1-6.7,4.1-9c10.4-11.8,20-24.3,29-37.2
			c4.4-6.2,8.8-12.3,13.2-18.5c4.8-6.6,9.2-13.9,14.6-20.1c0.5-0.5,1.1-1,1.9-1.2c3.8,3.1,6.3,7.4,7.3,12.2c0.4,2,0.5,4.1,0.2,6.2
			l-4.7,6.5c-0.1,0.1-0.2,0.3-0.3,0.4c0,0-29.8,40.9-29.8,41.1l-8.1,11.2H735c-2,4.4-4.9,11.5-5.6,13c-1.2,2.2-3.7,4.6-9.3,4.6h-7.3
			c-0.5,0-0.9,0.1-1.3,0.3c3.2,4.4,6.4,8.9,6.4,9l29.8,41.1c0.1,0.1,0.2,0.3,0.3,0.4L752.8,152.7z"/>
	</g>
</g>
</svg>
